<?xml version="1.0" encoding="UTF-8" standalone="no"?>
<!-- Created with Inkscape (http://www.inkscape.org/) -->

<svg
   width="128"
   height="128"
   viewBox="0 0 33.866666 33.866666"
   version="1.1"
   id="svg1"
   inkscape:version="1.3.2 (091e20e, 2023-11-25, custom)"
   sodipodi:docname="icon.svg"
   xmlns:inkscape="http://www.inkscape.org/namespaces/inkscape"
   xmlns:sodipodi="http://sodipodi.sourceforge.net/DTD/sodipodi-0.dtd"
   xmlns="http://www.w3.org/2000/svg"
   xmlns:svg="http://www.w3.org/2000/svg">
  <sodipodi:namedview
     id="namedview1"
     pagecolor="#505050"
     bordercolor="#ffffff"
     borderopacity="1"
     inkscape:showpageshadow="0"
     inkscape:pageopacity="0"
     inkscape:pagecheckerboard="1"
     inkscape:deskcolor="#505050"
     inkscape:document-units="mm"
     inkscape:zoom="2.5247521"
     inkscape:cx="94.662758"
     inkscape:cy="86.543149"
     inkscape:window-width="1366"
     inkscape:window-height="697"
     inkscape:window-x="-8"
     inkscape:window-y="-8"
     inkscape:window-maximized="1"
     inkscape:current-layer="layer1" />
  <defs
     id="defs1" />
  <g
     inkscape:label="Layer 1"
     inkscape:groupmode="layer"
     id="layer1">
    <rect
       style="fill:#f988ff;fill-opacity:1;stroke-width:0.893181;stroke-linecap:round"
       id="rect6"
       width="31.550781"
       height="31.86517"
       x="1.0583333"
       y="1.0583333"
       rx="2.9640718"
       ry="2.9640718" />
    <path
       d="M 3.282487,0 C 1.4639092,0 0,1.4639092 0,3.282487 V 30.58418 c 0,1.818578 1.4639092,3.282487 3.282487,3.282487 H 30.58418 c 1.818578,0 3.282487,-1.463909 3.282487,-3.282487 V 3.282487 C 33.866667,1.4639092 32.402758,0 30.58418,0 Z m 21.588346,8.8294352 c 1.380791,-5.84e-5 2.500165,1.1193155 2.500106,2.5001058 -0.0021,0.421379 -0.110746,0.835385 -0.315743,1.203544 -0.0013,0.0033 -0.0027,0.0065 -0.0041,0.0098 l -0.04754,0.07958 c -2.368493,4.098939 -4.482389,8.314589 -7.463627,12.94443 -0.380089,0.933958 -1.598265,1.443224 -2.60656,1.452624 -1.073131,-0.0067 -2.232096,-0.697569 -2.568318,-1.716691 L 7.2502035,13.114445 C 6.7689806,12.645111 6.4970275,12.001737 6.4957275,11.329541 6.4956257,8.9216828 9.6408056,7.8185112 11.18123,10.071737 l 5.804297,10.63811 c 1.871665,-3.488659 3.726319,-7.021797 5.651334,-10.463961 0.413427,-0.8596912 1.280066,-1.4091808 2.233972,-1.4164508 z"
       style="fill:#cc2bd7;stroke-width:0.915986;stroke-linecap:round;fill-opacity:1"
       id="path6" />
  </g>
</svg>
