<?xml version="1.0" encoding="UTF-8" standalone="no"?>
<!-- Created with Inkscape (http://www.inkscape.org/) -->

<svg
   width="128"
   height="128"
   viewBox="0 0 33.866666 33.866666"
   version="1.1"
   id="svg1"
   inkscape:version="1.3.2 (091e20e, 2023-11-25, custom)"
   sodipodi:docname="icon.svg"
   xmlns:inkscape="http://www.inkscape.org/namespaces/inkscape"
   xmlns:sodipodi="http://sodipodi.sourceforge.net/DTD/sodipodi-0.dtd"
   xmlns="http://www.w3.org/2000/svg"
   xmlns:svg="http://www.w3.org/2000/svg">
  <sodipodi:namedview
     id="namedview1"
     pagecolor="#505050"
     bordercolor="#ffffff"
     borderopacity="1"
     inkscape:showpageshadow="0"
     inkscape:pageopacity="0"
     inkscape:pagecheckerboard="1"
     inkscape:deskcolor="#505050"
     inkscape:document-units="mm"
     inkscape:zoom="1.7852694"
     inkscape:cx="22.965722"
     inkscape:cy="82.620586"
     inkscape:window-width="1366"
     inkscape:window-height="697"
     inkscape:window-x="-8"
     inkscape:window-y="-8"
     inkscape:window-maximized="1"
     inkscape:current-layer="layer1" />
  <defs
     id="defs1" />
  <g
     inkscape:label="Layer 1"
     inkscape:groupmode="layer"
     id="layer1">
    <path
       style="fill:#f432ff;fill-opacity:1;stroke-width:0.954;stroke-linecap:round"
       d="m 0,31.64832 0.27508888,0.995561 0.74666982,0.720471 1.2837481,0.510879 29.3166142,-0.0131 1.296847,-0.406083 L 33.587041,32.94517 33.88833,32.054408 33.849032,2.6198941 33.691838,1.4671407 32.958267,0.49777988 31.792415,0 2.3186063,0.01309947 1.3492455,0.30128781 0.45848148,1.0872561 0,2.3579047 Z"
       id="path2" />
    <path
       style="fill:#ffffff;fill-opacity:1;stroke-width:0.954;stroke-linecap:round"
       d="m 4.7746729,11.068988 0.8239037,-3.3850956 2.1808599,-0.8860016 2.3882295,0.5922303 1.760521,3.9489069 5.319254,9.733304 1.434562,-0.05734 6.980514,-13.2730553 3.633002,-0.8623599 1.54249,1.5356831 -0.12822,2.2143081 -6.421527,13.694117 -4.451139,4.079849 -3.523557,0.179578 -4.939388,-4.844091 z"
       id="path1"
       sodipodi:nodetypes="cccccccccccccccc" />
  </g>
</svg>
