<?xml version="1.0" encoding="UTF-8" standalone="no"?>
<!-- Created with Inkscape (http://www.inkscape.org/) -->

<svg
   width="128"
   height="128"
   viewBox="0 0 33.866666 33.866666"
   version="1.1"
   id="svg1"
   inkscape:version="1.3.2 (091e20e, 2023-11-25, custom)"
   sodipodi:docname="icon.svg"
   xmlns:inkscape="http://www.inkscape.org/namespaces/inkscape"
   xmlns:sodipodi="http://sodipodi.sourceforge.net/DTD/sodipodi-0.dtd"
   xmlns="http://www.w3.org/2000/svg"
   xmlns:svg="http://www.w3.org/2000/svg">
  <sodipodi:namedview
     id="namedview1"
     pagecolor="#505050"
     bordercolor="#ffffff"
     borderopacity="1"
     inkscape:showpageshadow="0"
     inkscape:pageopacity="0"
     inkscape:pagecheckerboard="1"
     inkscape:deskcolor="#505050"
     inkscape:document-units="mm"
     inkscape:zoom="2.7676601"
     inkscape:cx="33.602392"
     inkscape:cy="47.151743"
     inkscape:window-width="1366"
     inkscape:window-height="697"
     inkscape:window-x="-8"
     inkscape:window-y="-8"
     inkscape:window-maximized="1"
     inkscape:current-layer="layer2" />
  <defs
     id="defs1">
    <inkscape:path-effect
       effect="fillet_chamfer"
       id="path-effect11"
       is_visible="true"
       lpeversion="1"
       nodesatellites_param="F,0,0,1,0,1.1491851,0,1 @ F,0,0,1,0,0.69934192,0,1 @ F,0,0,1,0,1.1129333,0,1 @ F,0,0,1,0,0.85609644,0,1"
       radius="0"
       unit="px"
       method="auto"
       mode="F"
       chamfer_steps="1"
       flexible="false"
       use_knot_distance="true"
       apply_no_radius="true"
       apply_with_radius="true"
       only_selected="false"
       hide_knots="false" />
    <inkscape:path-effect
       effect="fillet_chamfer"
       id="path-effect10"
       is_visible="true"
       lpeversion="1"
       nodesatellites_param="F,0,0,1,0,1.5495764,0,1 @ F,0,0,1,0,1.6022204,0,1 @ F,0,0,1,0,1.8334281,0,1 @ F,0,0,1,0,1.987483,0,1"
       radius="0"
       unit="px"
       method="auto"
       mode="F"
       chamfer_steps="1"
       flexible="false"
       use_knot_distance="true"
       apply_no_radius="true"
       apply_with_radius="true"
       only_selected="false"
       hide_knots="false" />
    <rect
       x="-2.5292123"
       y="-5.4197406"
       width="201.16327"
       height="82.010599"
       id="rect9" />
    <inkscape:path-effect
       effect="fillet_chamfer"
       id="path-effect9"
       is_visible="true"
       lpeversion="1"
       nodesatellites_param="F,0,0,1,0,1.625697,0,1 @ F,0,0,1,0,1.6734961,0,1 @ F,0,0,1,0,1.5778979,0,1 @ F,0,0,1,0,1.5300988,0,1"
       radius="11.202791"
       unit="px"
       method="auto"
       mode="F"
       chamfer_steps="1"
       flexible="false"
       use_knot_distance="true"
       apply_no_radius="true"
       apply_with_radius="true"
       only_selected="false"
       hide_knots="false" />
    <inkscape:path-effect
       effect="fillet_chamfer"
       id="path-effect8"
       is_visible="true"
       lpeversion="1"
       nodesatellites_param="F,0,0,1,0,1.3689491,0,1 @ F,0,0,1,0,0,0,1 @ F,0,0,1,0,2.2351587,0,1 @ F,0,0,1,0,2.210284,0,1 @ F,0,0,1,0,1.9658763,0,1 @ F,0,0,1,0,2.798024,0,1"
       radius="0"
       unit="px"
       method="auto"
       mode="F"
       chamfer_steps="1"
       flexible="false"
       use_knot_distance="true"
       apply_no_radius="true"
       apply_with_radius="true"
       only_selected="false"
       hide_knots="false" />
    <inkscape:path-effect
       effect="fillet_chamfer"
       id="path-effect10-4"
       is_visible="true"
       lpeversion="1"
       nodesatellites_param="F,0,0,1,0,1.5495764,0,1 @ F,0,0,1,0,1.6022204,0,1 @ F,0,0,1,0,1.8334281,0,1 @ F,0,0,1,0,1.987483,0,1"
       radius="0"
       unit="px"
       method="auto"
       mode="F"
       chamfer_steps="1"
       flexible="false"
       use_knot_distance="true"
       apply_no_radius="true"
       apply_with_radius="true"
       only_selected="false"
       hide_knots="false" />
  </defs>
  <g
     inkscape:label="Layer 1"
     inkscape:groupmode="layer"
     id="layer1" />
  <g
     inkscape:groupmode="layer"
     id="layer2"
     inkscape:label="Layer 2">
    <path
       style="fill:#9159a7;fill-opacity:1;stroke:none;stroke-width:0.480483;stroke-linecap:round;stroke-dasharray:none;stroke-opacity:1"
       d="M 1.1518458,2.6011496 1.2379507,31.18797 a 1.582743,1.582743 44.47704 0 0 1.6068602,1.577792 L 30.50108,32.344172 a 2.1237725,2.1237725 134.47436 0 0 2.091391,-2.130121 L 32.507673,2.9091921 A 1.4051765,1.4051765 45.347703 0 0 31.123921,1.5085427 L 2.6965748,1.075199 a 1.5215443,1.5215443 135.35038 0 0 -1.544729,1.5259506 z"
       id="path9"
       sodipodi:nodetypes="ccccc"
       inkscape:path-effect="#path-effect10"
       inkscape:original-d="M 1.1471784,1.0515802 1.2427766,32.790183 32.598987,32.312192 32.503388,1.5295712 Z"
       transform="translate(0.27039255,0.10608961)" />
    <path
       style="fill:#714d7f;fill-opacity:1;stroke:none;stroke-width:2.98772;stroke-linecap:round;stroke-linejoin:round;stroke-dasharray:none;stroke-opacity:1"
       d="M 2.9396826,2.2883966 2.5581368,31.014299 H 30.917642 L 31.633356,3.3776346 Z"
       id="path14"
       sodipodi:nodetypes="ccccc" />
    <path
       style="fill:#ff7085;fill-opacity:0.475452;stroke:none;stroke-width:1.06063;stroke-linecap:round;stroke-linejoin:round;stroke-dasharray:none;stroke-opacity:1"
       d="m 3.751701,20.98923 16.191748,0.212026 -0.231642,7.449379 -15.9076043,0.254137 z"
       id="path15"
       sodipodi:nodetypes="ccccc" />
    <path
       style="fill:#ffeda1;fill-opacity:0.410853;stroke:none;stroke-width:1.06063;stroke-linecap:round;stroke-linejoin:round;stroke-dasharray:none;stroke-opacity:1"
       d="m 21.596609,21.257695 8.526875,0.116411 0.108255,7.452193 -8.221772,0.336312 z"
       id="path16"
       sodipodi:nodetypes="ccccc" />
    <path
       style="fill:#42ffc2;fill-opacity:0.511628;stroke:none;stroke-width:1.06063;stroke-linecap:round;stroke-linejoin:round;stroke-dasharray:none;stroke-opacity:1"
       d="m 3.948546,11.910131 26.254663,0.230486 -0.0975,7.452342 -25.9621731,0.230486 z"
       id="path13"
       sodipodi:nodetypes="ccccc" />
    <path
       d="m 5.5320868,3.8128396 a 0.93009009,0.90680989 0 0 0 -0.9678995,0.926558 l 0.081132,3.561023 a 0.67143258,0.65462659 0 0 0 0.613916,0.637688 l 3.9227579,0.325561 a 0.89102322,0.86872086 0 0 0 0.9663498,-0.856278 l 0.04031,-3.687114 A 0.76121167,0.7421585 0 0 0 9.4589789,3.9709696 Z m 0.2986898,1.012341 a 0.50362003,0.50362003 0 0 1 0.1312582,0.0093 0.50362003,0.50362003 0 0 1 0.3183268,0.219108 l 0.9725504,1.491901 0.9591146,-1.388546 a 0.50362003,0.50362003 0 0 1 0.6991821,-0.129191 0.50362003,0.50362003 0 0 1 0.1286744,0.701249 l -1.3828614,2.006079 a 0.50367039,0.50367039 0 0 1 -0.8356079,-0.0098 L 5.4364854,5.6023946 a 0.50362003,0.50362003 0 0 1 0.1462443,-0.695565 0.50362003,0.50362003 0 0 1 0.2480469,-0.08165 z"
       style="fill:#ad75c4;fill-opacity:1;stroke-width:0.783696;stroke-linecap:round"
       id="path17" />
    <path
       d="m 14.305381,3.3286074 -0.591178,1.7146241 -1.081588,-0.017053 -0.337964,1.0138916 1.098124,0.034107 -0.202572,0.7601603 -1.081587,-0.050643 -0.388607,1.098641 1.19786,0.075964 -0.621668,1.6407267 1.48208,-0.063045 0.537435,-1.6608805 0.752926,0.011885 -0.501778,1.6133383 1.457792,0.035657 0.513664,-1.648995 1.159102,-0.024288 0.274919,-0.9916707 -1.075387,-0.035657 0.239262,-0.7885823 1.087272,-0.012402 0.382406,-1.0035563 -1.135332,-0.011886 0.537952,-1.6252238 -1.505851,0.026872 -0.518896,1.5628911 -0.760677,-0.067696 0.569539,-1.4951949 z m 0.392741,2.4670329 1.147217,0.07183 -0.429948,1.1472168 -1.135332,-0.024288 z"
       style="fill:#ad75c4;stroke-width:1.65682;stroke-linecap:round;stroke-linejoin:round"
       id="path20"
       sodipodi:nodetypes="cccccccccccccccccccccccccccccccccc" />
  </g>
</svg>
